<?xml version="1.0" encoding="UTF-8"?>
<svg version="1.1" xmlns="http://www.w3.org/2000/svg" width="275" height="183">
  <rect width="275" height="183" fill="#DE2910"/>
  <polygon points="110,36 120,60 146,60 125,75 135,99 110,84 85,99 95,75 74,60 100,60" fill="#FFD700"/>
  <polygon points="160,24 168,42 188,42 172,55 180,73 160,60 140,73 148,55 132,42 152,42" fill="#FFD700"/>
  <polygon points="190,50 196,64 212,64 200,73 206,87 190,78 174,87 180,73 168,64 184,64" fill="#FFD700"/>
  <polygon points="170,85 176,99 192,99 180,108 186,122 170,113 154,122 160,108 148,99 164,99" fill="#FFD700"/>
  <polygon points="130,105 136,119 152,119 140,128 146,142 130,133 114,142 120,128 108,119 124,119" fill="#FFD700"/>
</svg>
